name Walk10.mot
datacolumns 19
datarows 10
range 2.62000000 2.66500000
endheader

                time	   L_ground_force_vx	   L_ground_force_vy	   L_ground_force_vz	   L_ground_force_px	   L_ground_force_py	   L_ground_force_pz	   R_ground_force_vx	   R_ground_force_vy	   R_ground_force_vz	   R_ground_force_px	   R_ground_force_py	   R_ground_force_pz	   L_ground_torque_x	   L_ground_torque_y	   L_ground_torque_z	   R_ground_torque_x	   R_ground_torque_y	   R_ground_torque_z	
          2.62000000	         22.81287328	        684.64916717	         43.12091824	         -0.33220504	          0.00000000	         -0.08840366	         -0.00531771	          0.15977629	          0.01808627	          0.00010523	          0.00000000	          0.00004028	          0.00000000	          1.07613296	          0.00000000	          0.00000000	         -0.00345222	          0.00000000	
          2.62500000	         24.52213237	        688.62529218	         43.71407502	         -0.33063593	          0.00000000	         -0.08865902	         -0.01027069	          0.21172568	          0.02310731	          0.00012984	          0.00000000	          0.00004914	          0.00000000	          1.08180387	          0.00000000	          0.00000000	         -0.00383932	          0.00000000	
          2.63000000	         26.25238951	        692.48876730	         44.27877610	         -0.32901523	          0.00000000	         -0.08891684	         -0.01672760	          0.26662278	          0.02808723	          0.00015222	          0.00000000	          0.00005689	          0.00000000	          1.09211636	          0.00000000	          0.00000000	         -0.00396946	          0.00000000	
          2.63500000	         27.99433487	        696.23466980	         44.80842376	         -0.32733661	          0.00000000	         -0.08918167	         -0.02473339	          0.31934614	          0.03238889	          0.00016834	          0.00000000	          0.00006197	          0.00000000	          1.10744077	          0.00000000	          0.00000000	         -0.00368284	          0.00000000	
          2.64000000	         29.73571846	        699.86060776	         45.29898960	         -0.32559436	          0.00000000	         -0.08945818	         -0.03416714	          0.36217752	          0.03510234	          0.00017271	          0.00000000	          0.00006223	          0.00000000	          1.12803126	          0.00000000	          0.00000000	         -0.00278170	          0.00000000	
          2.64500000	         31.46208704	        703.36342212	         45.74844164	         -0.32378387	          0.00000000	         -0.08974938	         -0.04466417	          0.38430125	          0.03500454	          0.00015823	          0.00000000	          0.00005498	          0.00000000	          1.15398641	          0.00000000	          0.00000000	         -0.00103342	          0.00000000	
          2.65000000	         33.15788394	        706.73354429	         46.15548100	         -0.32190131	          0.00000000	         -0.09005711	         -0.05552469	          0.37140541	          0.03053499	          0.00011613	          0.00000000	          0.00003688	          0.00000000	          1.18524292	          0.00000000	          0.00000000	          0.00182027	          0.00000000	
          2.65500000	         34.80734238	        709.95633340	         46.51832041	         -0.31994301	          0.00000000	         -0.09038259	         -0.06561260	          0.30549119	          0.01979943	          0.00003617	          0.00000000	          0.00000411	          0.00000000	          1.22173367	          0.00000000	          0.00000000	          0.00604576	          0.00000000	
          2.66000000	         36.39621369	        713.01696695	         46.83527750	         -0.31790530	          0.00000000	         -0.09072615	         -0.07325160	          0.16503024	          0.00061681	         -0.00009299	          0.00000000	         -0.00004750	          0.00000000	          1.26324668	          0.00000000	          0.00000000	          0.01188929	          0.00000000	
          2.66500000	         37.91450090	        715.90414884	         47.10525053	         -0.31578656	          0.00000000	         -0.09108650	         -0.07612973	         -0.07435457	         -0.02937226	         -0.00028292	          0.00000000	         -0.00012212	          0.00000000	          1.30930765	          0.00000000	          0.00000000	          0.01953529	          0.00000000	
